<svg width="78" height="78" viewBox="0 0 78 78" fill="none" xmlns="http://www.w3.org/2000/svg">
<g clip-path="url(#clip0)">
<path d="M76.6881 67.5835H74.0885V64.9839H71.4889V67.5835H68.8893V64.9839H66.2897V67.5835H46.9463C45.559 67.5765 44.289 68.3597 43.6734 69.6024C43.4976 69.9597 43.132 70.1856 42.7334 70.1831H35.2482C34.8489 70.1856 34.484 69.9597 34.3082 69.6024C33.6932 68.3616 32.4264 67.5784 31.0416 67.5835H11.6982V44.1871H9.09859V67.5835H6.49899V44.1871H3.8994V67.5835H1.2998C0.58199 67.5835 0 68.1655 0 68.8833V72.7827C0 75.6539 2.32796 77.9819 5.19919 77.9819H72.7887C75.66 77.9819 77.9879 75.6539 77.9879 72.7827V68.8833C77.9879 68.1655 77.4059 67.5835 76.6881 67.5835ZM75.3883 72.7827C75.3883 74.2183 74.2243 75.3823 72.7887 75.3823H5.19919C3.76358 75.3823 2.5996 74.2183 2.5996 72.7827V70.1831H31.0416C31.4408 70.1806 31.8057 70.4065 31.9815 70.7638C32.5965 72.0046 33.8633 72.7878 35.2482 72.7827H42.7398C44.1272 72.7903 45.3971 72.0065 46.0127 70.7638C46.1879 70.4084 46.5497 70.1831 46.9463 70.1831H75.3883V72.7827Z" fill="white"/>
<path d="M33.7947 20.7908V18.1912H10.3984C6.8106 18.1956 3.90383 21.1024 3.89938 24.6902V25.99H6.49898V24.6902C6.49898 22.5367 8.24495 20.7908 10.3984 20.7908H33.7947Z" fill="white"/>
<path d="M9.0986 25.99H36.3944V23.3904H11.6982C10.2626 23.3904 9.0986 24.5543 9.0986 25.99Z" fill="white"/>
<path d="M73.7477 16.3544L75.3077 11.4377C75.4188 11.0892 75.3782 10.7097 75.196 10.393C75.0132 10.0763 74.7054 9.851 74.3487 9.7723L69.3063 8.66988L68.2096 3.63317C68.1322 3.27648 67.9088 2.96803 67.5927 2.78462C67.2766 2.60056 66.8984 2.55804 66.5499 2.66784L61.6325 4.22721L58.1514 0.417942C57.8994 0.158364 57.5529 0.0123901 57.1911 0.0123901C56.8294 0.0123901 56.4829 0.158364 56.2309 0.417942L52.7548 4.2342L47.8323 2.66784C47.4839 2.55614 47.105 2.59739 46.7877 2.78017C46.471 2.96296 46.2457 3.27077 46.1676 3.62809L45.0652 8.66988L40.0335 9.7723C39.6762 9.85036 39.3684 10.0757 39.1856 10.3924C39.0028 10.7097 38.9622 11.0886 39.0733 11.4377L40.6333 16.3544L36.817 19.8305C36.5467 20.0768 36.3925 20.4252 36.3925 20.7908C36.3925 21.1563 36.5467 21.5048 36.817 21.751L40.6333 25.2271L39.0733 30.1438C38.9622 30.4929 39.0028 30.8718 39.1856 31.1891C39.3684 31.5058 39.6762 31.7311 40.0335 31.8092L45.076 32.9116L46.1778 37.9534C46.2558 38.3107 46.4811 38.6186 46.7985 38.8013C47.1152 38.9841 47.4947 39.0254 47.8431 38.9137L52.7599 37.3473L56.236 41.1636C56.4822 41.4339 56.8306 41.5882 57.1962 41.5882C57.5618 41.5882 57.9109 41.4339 58.1571 41.1636L61.6325 37.3473L66.5499 38.9137C66.8984 39.0254 67.2773 38.9841 67.5946 38.8013C67.9113 38.6186 68.1366 38.3107 68.2147 37.9534L69.3171 32.9116L74.3589 31.8092C74.7162 31.7311 75.024 31.5058 75.2068 31.1891C75.3896 30.8718 75.4308 30.4929 75.3191 30.1438L73.7598 25.2271L77.576 21.751C77.8458 21.5048 78 21.1563 78 20.7908C78 20.4252 77.8458 20.0768 77.576 19.8305L73.7477 16.3544ZM71.381 23.8664C71.0059 24.2084 70.8638 24.7377 71.0186 25.222L72.399 29.5745L67.9367 30.5507C67.4417 30.6598 67.0551 31.0463 66.946 31.5414L65.9749 35.9986L61.6224 34.6125C61.1381 34.4602 60.6095 34.6017 60.2667 34.9756L57.1911 38.3577L54.1155 34.9781C53.8693 34.7077 53.5209 34.5541 53.1553 34.5541C53.0226 34.5548 52.8913 34.5751 52.7656 34.6157L48.4073 35.9986L47.4312 31.5363C47.3221 31.0413 46.9355 30.6548 46.4405 30.5456L41.9832 29.5745L43.3694 25.222C43.5236 24.7377 43.382 24.2084 43.0063 23.8664L39.6242 20.7908L43.0038 17.7152C43.3795 17.3731 43.521 16.8438 43.3662 16.3595L41.9832 12.007L46.4456 11.0308C46.9406 10.9217 47.3271 10.5352 47.4363 10.0401L48.4073 5.58286L52.7599 6.96898C53.2441 7.1232 53.7735 6.98167 54.1155 6.60595L57.1911 3.22381L60.2667 6.60341C60.6088 6.97913 61.1381 7.12066 61.6224 6.9658L65.9749 5.58286L66.9511 10.0452C67.0602 10.5402 67.4467 10.9268 67.9418 11.0359L72.4041 12.012L71.0186 16.3652C70.8638 16.8488 71.0059 17.3782 71.381 17.7209L74.7581 20.7908L71.381 23.8664Z" fill="white"/>
<path d="M49.7731 26.3708L62.7705 13.3728L64.6091 15.2108L51.6111 28.2088L49.7731 26.3708Z" fill="white"/>
<path d="M54.5916 16.8914C54.5916 14.7379 52.8456 12.992 50.6922 12.992C48.5387 12.992 46.7928 14.7379 46.7928 16.8914C46.7928 19.0448 48.5387 20.7908 50.6922 20.7908C52.8456 20.7908 54.5916 19.0448 54.5916 16.8914ZM49.3924 16.8914C49.3924 16.1736 49.9743 15.5916 50.6922 15.5916C51.41 15.5916 51.992 16.1736 51.992 16.8914C51.992 17.6092 51.41 18.1912 50.6922 18.1912C49.9743 18.1912 49.3924 17.6092 49.3924 16.8914Z" fill="white"/>
<path d="M63.6901 20.7908C61.5367 20.7908 59.7907 22.5367 59.7907 24.6902C59.7907 26.8436 61.5367 28.5896 63.6901 28.5896C65.8436 28.5896 67.5895 26.8436 67.5895 24.6902C67.5895 22.5367 65.8436 20.7908 63.6901 20.7908ZM63.6901 25.99C62.9723 25.99 62.3903 25.408 62.3903 24.6902C62.3903 23.9724 62.9723 23.3904 63.6901 23.3904C64.408 23.3904 64.9899 23.9724 64.9899 24.6902C64.9899 25.408 64.408 25.99 63.6901 25.99Z" fill="white"/>
<path d="M33.7478 34.7858C33.3131 34.6817 32.8548 34.8105 32.5381 35.126L19.8518 47.681L16.7673 49.5164C14.7198 50.707 13.7958 53.1759 14.558 55.4188C15.1546 57.2371 16.7489 58.5465 18.6484 58.78L21.3559 64.2585C21.5755 64.7034 22.0293 64.9845 22.5256 64.9826H27.6391C28.0777 64.9833 28.487 64.7624 28.7276 64.3956C28.9681 64.0287 29.0075 63.5648 28.8323 63.163L26.1413 56.9509L40.2715 57.1851H40.2938C40.7139 57.1851 41.108 56.982 41.3518 56.6399C41.5955 56.2978 41.6589 55.8586 41.5218 55.4613L34.6814 35.6267C34.5354 35.2047 34.1832 34.8873 33.7478 34.7858ZM17.0275 54.5855C16.6619 53.5053 17.1081 52.3178 18.0944 51.7454L20.1247 50.5408L22.398 55.0367L20.4731 55.9894C19.8276 56.3099 19.0743 56.334 18.4092 56.0567C17.7555 55.792 17.2503 55.2544 17.0275 54.5855ZM23.3342 62.3843L21.3686 58.4144C21.4505 58.3783 21.5387 58.3643 21.6206 58.3237L23.4954 57.3958L25.6552 62.3843H23.3342ZM24.9564 54.3373L22.2476 48.9744L32.9056 38.4275L38.4678 54.5557L24.9564 54.3373Z" fill="white"/>
<path d="M40.5019 44.5184L44.8005 43.0244L45.6529 45.4787L41.3549 46.9727L40.5019 44.5184Z" fill="white"/>
<path d="M37.1242 35.8775L39.991 32.8894L41.8671 34.6894L38.9997 37.6774L37.1242 35.8775Z" fill="white"/>
<path d="M44.1931 53.2857H48.0925V55.8853H44.1931V53.2857Z" fill="white"/>
<path d="M76.6881 44.1871H74.0885V35.0885H71.4889V44.1871H68.8893V41.5875H66.2897V44.1871H51.9919C51.2741 44.1871 50.6921 44.7691 50.6921 45.4869V61.0845C50.6921 61.8023 51.2741 62.3843 51.9919 62.3843H76.6881C77.4059 62.3843 77.9879 61.8023 77.9879 61.0845V45.4869C77.9879 44.7691 77.4059 44.1871 76.6881 44.1871ZM75.3883 59.7847H53.2917V46.7867H75.3883V59.7847Z" fill="white"/>
<path d="M55.8914 49.3863H61.0905V51.9859H55.8914V49.3863Z" fill="white"/>
<path d="M63.6901 49.3863H72.7887V51.9859H63.6901V49.3863Z" fill="white"/>
<path d="M55.8914 54.5855H72.7887V57.1852H55.8914V54.5855Z" fill="white"/>
<path d="M1.2998 41.5875H20.7968C21.5146 41.5875 22.0966 41.0055 22.0966 40.2877V29.8893C22.0966 29.1715 21.5146 28.5895 20.7968 28.5895H1.2998C0.58199 28.5895 0 29.1715 0 29.8893V40.2877C0 41.0055 0.58199 41.5875 1.2998 41.5875ZM2.5996 31.1891H19.497V38.9879H2.5996V31.1891Z" fill="white"/>
<path d="M5.19919 33.7888H7.79879V36.3884H5.19919V33.7888Z" fill="white"/>
<path d="M10.3984 33.7888H16.8974V36.3884H10.3984V33.7888Z" fill="white"/>
</g>
<defs>
<clipPath id="clip0">
<rect width="78" height="78" fill="white"/>
</clipPath>
</defs>
</svg>
