<svg width="78" height="78" viewBox="0 0 78 78" fill="none" xmlns="http://www.w3.org/2000/svg">
<g clip-path="url(#clip0)">
<path d="M16.6345 32.265C17.1385 34.0392 17.8551 35.7516 18.7651 37.3564C17.4307 38.7342 17.4223 40.9527 18.8146 42.3354L22.6862 46.1801C24.0614 47.5456 26.2962 47.5588 27.688 46.2173C29.2992 47.1163 31.0167 47.8209 32.7945 48.3123C32.816 50.2373 34.398 51.7975 36.346 51.7973H36.3588L41.8307 51.7781C43.7625 51.7714 45.3603 50.2213 45.3704 48.2683C47.1447 47.7643 48.8571 47.0479 50.4619 46.1376C51.855 47.4807 54.0753 47.4635 55.4467 46.0822L59.3075 42.1942C60.6881 40.8039 60.6686 38.5833 59.3231 37.2144C60.2221 35.603 60.9265 33.8858 61.4178 32.1081C63.3483 32.0871 64.9095 30.4969 64.9028 28.5439L64.8838 23.0722C64.8771 21.1197 63.3046 19.5387 61.3738 19.5323C60.87 17.7579 60.1535 16.0458 59.2433 14.4407C60.5821 13.0455 60.5592 10.8178 59.1828 9.45095L55.2886 5.58401C53.9 4.20484 51.6734 4.23059 50.3197 5.57974C48.7088 4.68091 46.9916 3.97648 45.2139 3.48502C45.1933 1.55985 43.6105 0 41.6623 0C41.6582 0 41.6536 0 41.6495 0L36.1776 0.019043C34.2004 0.0260508 32.6398 1.62932 32.6379 3.52904C30.8637 4.03284 29.1512 4.74947 27.5463 5.65957C26.1511 4.32077 23.9234 4.34378 22.5563 5.7202L18.7061 9.59766C17.3353 10.9779 17.3303 13.1962 18.6854 14.5826C17.7863 16.1943 17.0818 17.9115 16.5905 19.6889C14.6608 19.7092 13.0988 21.2992 13.1055 23.2531L13.1247 28.7249C13.1315 30.6788 14.7043 32.2565 16.6345 32.265ZM16.6315 21.9739H16.6347L16.6807 21.9738C17.6577 21.9626 18.5196 21.2977 18.7769 20.3566C19.2256 18.7147 19.8763 17.1289 20.7105 15.6434C21.1831 14.8022 21.0475 13.7347 20.383 13.0495C20.3692 13.0353 20.3554 13.0211 20.3415 13.0073C20.3389 13.0047 20.3365 13.0022 20.3339 12.9996C19.8382 12.5074 19.8354 11.7037 20.3277 11.2079L24.1777 7.33063C24.6705 6.8346 25.4753 6.82927 25.977 7.32103C25.9798 7.32377 25.9823 7.32652 25.9852 7.32926C26.6853 8.01907 27.7815 8.15511 28.6508 7.66045C30.1217 6.82378 31.6933 6.16779 33.3217 5.71061C34.2602 5.44705 34.9188 4.58067 34.9232 3.59882V3.55494C34.9165 2.86437 35.4926 2.30664 36.1857 2.30435L41.6576 2.28516H41.6622C42.3552 2.28516 42.9307 2.83801 42.9288 3.52935C42.9288 4.6314 43.6365 5.42298 44.5439 5.67069C46.1872 6.11965 47.7738 6.77031 49.2597 7.60515C50.1005 8.07711 51.1672 7.94198 51.8561 7.27487C51.8713 7.26817 52.7851 6.31922 53.6783 7.2054L57.5725 11.0723C58.0696 11.5661 58.0737 12.3732 57.5832 12.87C56.8443 13.6185 56.7608 14.7015 57.2258 15.5158C58.0707 16.9955 58.7324 18.5774 59.1927 20.2172C59.4498 21.1336 60.2585 21.8334 61.3604 21.8173C62.0391 21.8173 62.5962 22.3843 62.5986 23.0801L62.6177 28.5518C62.6219 29.801 61.3418 29.8167 61.3266 29.8234C60.35 29.8348 59.4887 30.4995 59.2315 31.4396C58.7829 33.0825 58.1321 34.6689 57.2977 36.1542C56.8254 36.9945 56.9605 38.0613 57.6223 38.7444C58.2308 39.3767 58.1377 40.129 57.6863 40.5839L53.8251 44.4719C53.3325 44.9684 52.5302 44.9714 52.0334 44.4781C51.3351 43.7703 50.2388 43.6334 49.3877 44.1195C47.9081 44.9643 46.3265 45.6262 44.687 46.0866C43.7482 46.35 43.0896 47.2164 43.0852 48.1982L43.0854 48.2419C43.0919 48.9301 42.5188 49.4902 41.8227 49.4927L36.3509 49.5119C36.3493 49.5119 36.3478 49.5119 36.3464 49.5119C35.6796 49.5119 35.112 49.0673 35.077 48.1259C35.0407 47.1833 34.3922 46.3797 33.4633 46.1259C31.8209 45.6771 30.2352 45.0266 28.75 44.1925C28.4148 44.0042 28.0437 43.9125 27.6749 43.9125C27.1164 43.9125 26.5785 44.1101 26.1132 44.5607C25.6115 45.056 24.7965 45.0544 24.2964 44.5581L20.4248 40.7136C19.9395 40.2314 19.9183 39.434 20.4251 38.927L20.4724 38.8787C21.1334 38.1869 21.2612 37.1192 20.783 36.2816C19.938 34.8017 19.276 33.2196 18.8158 31.5795C18.556 30.654 17.7489 30.0116 16.8065 29.9811C16.7575 29.9796 16.7078 29.979 16.6606 29.9794C15.9644 29.9832 15.4126 29.4075 15.4101 28.7166L15.391 23.2449C15.3884 22.5568 15.9348 21.9739 16.6315 21.9739Z" fill="white"/>
<path d="M39.0033 41.9281H39.0603C46.9904 41.9003 53.6012 36.0992 54.8295 28.4633C54.9298 27.8404 54.5061 27.254 53.883 27.1538C53.2592 27.0529 52.6737 27.4773 52.5735 28.1003C51.5212 34.6383 45.8575 39.6191 39.0522 39.6429C39.0356 39.6429 39.0201 39.6429 39.0035 39.6429C37.0282 39.6429 35.1485 39.2229 33.4485 38.4686L33.8247 38.0925C35.3909 36.5261 37.485 35.5988 39.7201 35.4813C39.7639 35.4707 43.3355 35.4542 46.1723 32.6177C48.6652 30.1246 49.6319 26.4621 48.6951 23.0592C48.3104 21.6625 46.5641 21.1965 45.539 22.2218L40.9745 26.7863C40.6555 27.1055 40.1387 27.1055 39.8197 26.7863L38.1167 25.0833C37.7975 24.7641 37.7973 24.2476 38.1167 23.9283L42.6812 19.3638C43.7054 18.3396 43.2417 16.593 41.8436 16.2079C38.441 15.2713 34.7783 16.2377 32.2851 18.7308C30.5756 20.4404 29.5598 22.71 29.425 25.1226C29.4152 25.1632 29.3942 28.4945 26.8105 31.0784L26.4345 31.4544C25.6865 29.7687 25.2669 27.9059 25.2601 25.9467C25.2336 18.3681 31.3776 12.181 38.9562 12.1544H39.0047C45.5462 12.1544 51.2114 16.7945 52.4845 23.2041C52.6074 23.8229 53.209 24.2248 53.8277 24.1022C54.4467 23.9792 54.8487 23.3778 54.7259 22.7588C53.2406 15.2816 46.6342 9.86929 39.0047 9.86929C38.9859 9.86929 38.9669 9.86929 38.9481 9.86929C30.1095 9.90022 22.944 17.1161 22.9748 25.9548C23.0057 34.7531 30.1689 41.9281 39.0033 41.9281ZM28.4262 32.6942C31.658 29.4621 31.6957 25.2938 31.7063 25.2492C31.8099 23.3994 32.5892 21.6583 33.9008 20.3466C35.6488 18.5987 38.1456 17.8288 40.556 18.257L36.5006 22.3124C35.2913 23.5217 35.2913 25.4896 36.5006 26.699L38.2036 28.4021C39.4131 29.6114 41.3808 29.6114 42.5904 28.4021L46.6458 24.3467C47.0742 26.7569 46.3041 29.254 44.5564 31.002C42.368 33.1901 39.6489 33.1878 39.6012 33.1994C36.8004 33.3465 34.1751 34.5104 32.2088 36.4767L31.3662 37.3193C29.8729 36.3174 28.5862 35.0304 27.5839 33.5368L28.4262 32.6942Z" fill="white"/>
<path d="M74.3582 58.1268C72.9531 56.0616 70.572 55.5561 67.9858 56.7727L49.7667 64.7947C49.7757 63.2617 49.7825 63.3273 49.7717 63.2185C49.4559 60.0419 47.0276 57.511 43.8669 57.0637C43.8571 57.0623 43.8472 57.061 43.8375 57.0599L31.7658 55.6699C29.211 55.306 27.9626 54.4571 25.5847 53.0664C22.1545 51.0598 18.2492 49.9855 14.2776 49.9489V49.3397C14.2776 47.5652 12.8338 46.1216 11.0595 46.1216H6.05013C4.27579 46.1216 2.83202 47.5652 2.83202 49.3397V73.3684C2.83202 75.1429 4.27579 76.5865 6.05013 76.5865H11.0595C12.8338 76.5865 14.2776 75.1429 14.2776 73.3684V73.1314L25.1358 77.1731C26.61 77.7218 28.1549 78 29.728 78H46.0099C51.568 78 52.7735 75.6739 73.3937 64.4525C74.8105 63.6526 76.0326 60.5876 74.3582 58.1268ZM72.153 62.5289C51.4212 73.8823 50.5761 75.7148 46.0099 75.7148H29.728C28.4282 75.7148 27.1513 75.485 25.933 75.0314L14.2776 70.6931V61.2224C14.2776 60.5914 13.7662 60.0798 13.135 60.0798C12.5039 60.0798 11.9925 60.5914 11.9925 61.2224V73.3686C11.9925 73.8831 11.574 74.3015 11.0595 74.3015H6.05013C5.53567 74.3015 5.11718 73.8831 5.11718 73.3686V49.3399C5.11718 48.8254 5.53567 48.4069 6.05013 48.4069H11.0595C11.574 48.4069 11.9925 48.8254 11.9925 49.3399V55.9254C11.9925 56.5564 12.5039 57.068 13.135 57.068C13.7662 57.068 14.2776 56.5564 14.2776 55.9254V52.2344C17.8441 52.2708 21.3503 53.2371 24.4307 55.0391C26.931 56.5017 28.455 57.5098 31.4599 57.9348C31.4696 57.9362 31.4795 57.9375 31.4893 57.9386L43.5604 59.3284C45.6498 59.6302 47.2577 61.2934 47.4917 63.3876L47.477 65.4094H33.942C33.3108 65.4094 32.7994 65.921 32.7994 66.552C32.7994 67.183 33.3108 67.6946 33.942 67.6946H48.6113C49.1244 67.6946 48.0952 67.9852 68.9201 58.8585C68.9296 58.8543 68.9389 58.8501 68.9481 58.8457C70.0302 58.3339 71.5194 58.0168 72.469 59.4125C73.1349 60.391 72.9947 61.7111 72.153 62.5289Z" fill="white"/>
</g>
<defs>
<clipPath id="clip0">
<rect width="78" height="78" fill="white"/>
</clipPath>
</defs>
</svg>
