<svg width="78" height="78" viewBox="0 0 78 78" fill="none" xmlns="http://www.w3.org/2000/svg">
<g clip-path="url(#clip0)">
<path d="M52.359 6.96514H50.5488C49.375 5.88609 47.8103 5.22583 46.0939 5.22583H44.0299C42.4949 2.14849 39.3799 0.200012 35.8909 0.200012C32.4021 0.200012 29.287 2.14849 27.752 5.22583H25.6882C23.9714 5.22583 22.4064 5.88624 21.2324 6.96575H19.4244C13.9937 6.96575 9.57538 11.384 9.57538 16.8148V18.7867C4.2007 19.3592 -3.05176e-05 23.9193 -3.05176e-05 29.4432C-3.05176e-05 34.967 4.2007 39.5271 9.57523 40.0993V56.0666C9.57523 61.4983 13.9935 65.9173 19.4243 65.9173H37.8525C37.8109 66.3001 37.7881 66.6885 37.7881 67.0821C37.7881 72.9919 42.596 77.8 48.5058 77.8C54.4155 77.8 59.2234 72.992 59.2234 67.0821C59.2234 65.8789 59.0211 64.7228 58.6538 63.6422C60.8942 61.7787 62.2079 59.0088 62.2079 56.0671V23.9149C62.2079 23.2839 61.6963 22.7723 61.0653 22.7723C60.4343 22.7723 59.9227 23.2839 59.9227 23.9149V56.0671C59.9227 58.1226 59.0856 60.0678 57.6385 61.4803C55.7506 58.4138 52.3634 56.3643 48.5056 56.3643C43.8028 56.3643 39.8005 59.4104 38.3609 63.6322H19.4243C15.2535 63.6322 11.8604 60.2382 11.8604 56.0666V40.0993C17.2348 39.527 21.4355 34.9668 21.4355 29.4432C21.4355 23.9195 17.2349 19.3594 11.8604 18.787V16.8151C11.8604 12.6444 15.2535 9.25121 19.4243 9.25121H19.618C19.2836 10.0399 19.0985 10.9066 19.0985 11.8156C19.0985 15.4492 22.0546 18.4052 25.6882 18.4052H46.094C49.7276 18.4052 52.6835 15.4492 52.6835 11.8156C52.6835 10.9061 52.4982 10.0393 52.1637 9.25045H52.3591C56.5299 9.25045 59.923 12.6442 59.923 16.8158V19.3476C59.923 19.9787 60.4346 20.4902 61.0656 20.4902C61.6966 20.4902 62.2082 19.9787 62.2082 19.3476V16.8157C62.208 11.3842 57.7897 6.96514 52.359 6.96514ZM48.5058 58.6494C53.1554 58.6494 56.9383 62.4323 56.9383 67.082C56.9383 71.7317 53.1554 75.5147 48.5058 75.5147C43.8561 75.5147 40.0732 71.7318 40.0732 67.082C40.0732 62.4323 43.8561 58.6494 48.5058 58.6494ZM19.1503 29.4432C19.1503 34.0928 15.3675 37.8758 10.7177 37.8758C6.06797 37.8757 2.28513 34.0928 2.28513 29.4432C2.28513 24.7935 6.06797 21.0106 10.7177 21.0106C15.3675 21.0106 19.1503 24.7935 19.1503 29.4432ZM46.0939 16.1201H25.6882C23.3147 16.1201 21.3837 14.1891 21.3837 11.8156C21.3837 9.4421 23.3147 7.51114 25.6882 7.51114H28.4919C28.9602 7.51114 29.3811 7.22535 29.5539 6.7901C30.5918 4.17497 33.0793 2.48532 35.8909 2.48532C38.7027 2.48532 41.1902 4.17497 42.2281 6.7901C42.4009 7.22535 42.8218 7.51114 43.2901 7.51114H46.0939C48.4674 7.51114 50.3982 9.4421 50.3982 11.8156C50.3982 14.1891 48.4674 16.1201 46.0939 16.1201Z" fill="white"/>
<path d="M35.8909 4.90317C33.465 4.90317 31.4915 6.87678 31.4915 9.3027C31.4915 11.7286 33.4652 13.7021 35.8909 13.7021C38.3167 13.7021 40.2903 11.7285 40.2903 9.3027C40.2903 6.87693 38.3168 4.90317 35.8909 4.90317ZM35.8909 11.4169C34.725 11.4169 33.7767 10.4684 33.7767 9.3027C33.7767 8.13697 34.7252 7.18832 35.8909 7.18832C37.0567 7.18832 38.0052 8.13681 38.0052 9.3027C38.0052 10.4686 37.0568 11.4169 35.8909 11.4169Z" fill="white"/>
<path d="M7.74042 24.5062C7.74042 25.1372 8.25199 25.6487 8.883 25.6487H9.87155V34.4769C9.87155 35.1079 10.3831 35.6195 11.0141 35.6195C11.6451 35.6195 12.1567 35.1079 12.1567 34.4769V24.5062C12.1567 23.8752 11.6451 23.3636 11.0141 23.3636H8.883C8.25199 23.3636 7.74042 23.8752 7.74042 24.5062Z" fill="white"/>
<path d="M32.9917 46.3747C33.0217 46.21 33.0651 45.8978 33.0704 45.731C33.0704 43.6942 31.4134 42.037 29.3766 42.037C27.6155 42.037 26.0911 43.29 25.752 45.0162C25.6304 45.6353 26.0337 46.236 26.653 46.3576C27.2719 46.4787 27.8726 46.0759 27.9944 45.4566C28.1235 44.7993 28.7049 44.3221 29.3766 44.3221C30.1325 44.3221 30.7513 44.9207 30.7839 45.6689L30.7531 45.9096C30.629 46.4004 30.3362 46.9776 29.8823 47.6262C28.3032 49.8825 27.3608 51.1164 26.8545 51.7794C26.2273 52.6007 25.9409 52.9756 26.1356 53.6081C26.2499 53.98 26.5315 54.2652 26.908 54.3908C27.0603 54.4416 27.2067 54.4905 29.1444 54.4905C29.9054 54.4905 30.9425 54.483 32.3648 54.465C32.9958 54.4571 33.5008 53.9391 33.4929 53.3081C33.485 52.6771 32.9684 52.1709 32.336 52.18C31.3381 52.1927 30.2795 52.2009 29.3999 52.2026C29.9527 51.4631 30.7198 50.4148 31.7545 48.9363C32.3927 48.0247 32.8089 47.1627 32.9917 46.3747Z" fill="white"/>
<path d="M22.7879 55.076C22.3971 55.5715 22.482 56.2899 22.9774 56.6808C24.8843 58.1849 27.1781 58.9799 29.6112 58.9799C35.5215 58.9799 40.3301 54.172 40.3301 48.2625C40.3301 42.3529 35.5217 37.5451 29.6112 37.5451C23.7016 37.5451 18.8938 42.3529 18.8938 48.2625C18.8938 49.8263 19.2239 51.3348 19.8747 52.7461C20.1389 53.3191 20.8176 53.5694 21.3909 53.3051C21.9638 53.0407 22.2141 52.362 21.9498 51.7889C21.4382 50.6799 21.1788 49.4934 21.1788 48.2623C21.1788 43.6128 24.9615 39.8301 29.611 39.8301C34.2613 39.8301 38.0448 43.6128 38.0448 48.2623C38.0448 52.9119 34.2615 56.6945 29.611 56.6945C27.6967 56.6945 25.892 56.0693 24.3925 54.8864C23.8971 54.4958 23.1786 54.5806 22.7879 55.076Z" fill="white"/>
<path d="M48.5641 71.1874C47.8652 71.1874 47.2654 70.6668 47.1691 69.9767C47.16 69.9116 47.1554 69.8451 47.1554 69.7786C47.1554 69.1476 46.6438 68.6361 46.0128 68.6361C45.3818 68.6361 44.8702 69.1476 44.8702 69.7786C44.8702 69.9502 44.8823 70.1231 44.9057 70.2925C45.1588 72.1054 46.7314 73.4727 48.5641 73.4727C50.601 73.4727 52.258 71.8156 52.258 69.7788C52.258 68.7902 51.8677 67.8911 51.233 67.2275C51.8677 66.5639 52.258 65.6647 52.258 64.6762C52.258 62.6393 50.601 60.9823 48.5641 60.9823C46.8029 60.9823 45.2785 62.2352 44.9396 63.9615C44.818 64.5807 45.2214 65.1812 45.8405 65.3029C46.4596 65.4243 47.0603 65.0211 47.1819 64.402C47.3109 63.7446 47.8923 63.2676 48.5641 63.2676C49.3409 63.2676 49.9728 63.8995 49.9728 64.6763C49.9728 65.4531 49.3409 66.0851 48.5641 66.0851C47.9331 66.0851 47.4215 66.5966 47.4215 67.2276C47.4215 67.8586 47.9331 68.3702 48.5641 68.3702C49.3409 68.3702 49.9728 69.0021 49.9728 69.7789C49.9728 70.5557 49.3408 71.1874 48.5641 71.1874Z" fill="white"/>
<path d="M45.7741 26.5553C45.7741 25.9243 45.2625 25.4128 44.6315 25.4128H26.8731C26.2421 25.4128 25.7305 25.9243 25.7305 26.5553C25.7305 27.1863 26.2421 27.6979 26.8731 27.6979H44.6315C45.2625 27.6979 45.7741 27.1863 45.7741 26.5553Z" fill="white"/>
<path d="M38.723 33.4736C39.354 33.4736 39.8656 32.962 39.8656 32.331C39.8656 31.7 39.354 31.1884 38.723 31.1884H26.8731C26.2421 31.1884 25.7305 31.7 25.7305 32.331C25.7305 32.962 26.2421 33.4736 26.8731 33.4736H38.723Z" fill="white"/>
<path d="M58.0463 45.3748C58.0463 44.7438 57.5347 44.2322 56.9037 44.2322H42.6507C42.0197 44.2322 41.5081 44.7438 41.5081 45.3748C41.5081 46.0058 42.0197 46.5174 42.6507 46.5174H56.9037C57.5347 46.5174 58.0463 46.0058 58.0463 45.3748Z" fill="white"/>
<path d="M42.6507 50.0079C42.0197 50.0079 41.5081 50.5194 41.5081 51.1505C41.5081 51.7815 42.0197 52.293 42.6507 52.293H50.9952C51.6262 52.293 52.1378 51.7815 52.1378 51.1505C52.1378 50.5194 51.6262 50.0079 50.9952 50.0079H42.6507Z" fill="white"/>
<path d="M76.8574 63.0517H63.4857C62.8547 63.0517 62.3431 63.5633 62.3431 64.1943C62.3431 64.8253 62.8547 65.3369 63.4857 65.3369H76.8574C77.4884 65.3369 78 64.8253 78 64.1943C78 63.5633 77.4884 63.0517 76.8574 63.0517Z" fill="white"/>
<path d="M70.9489 68.8272H63.4856C62.8546 68.8272 62.343 69.3388 62.343 69.9698C62.343 70.6008 62.8546 71.1124 63.4856 71.1124H70.9489C71.5799 71.1124 72.0915 70.6008 72.0915 69.9698C72.0915 69.3388 71.5799 68.8272 70.9489 68.8272Z" fill="white"/>
</g>
<defs>
<clipPath id="clip0">
<rect width="78" height="78" fill="white"/>
</clipPath>
</defs>
</svg>
