<svg width="78" height="78" viewBox="0 0 78 78" fill="none" xmlns="http://www.w3.org/2000/svg">
<path d="M74.7137 35.0157C74.5882 28.9369 72.907 22.9792 69.8428 17.7458C72.3361 5.81859 59.7248 -3.88024 48.8636 1.54332C38.6249 -1.50937 26.7209 0.113909 17.3309 7.38339C16.1397 8.29683 17.579 10.0715 18.7208 9.19626C21.6046 6.98515 24.7994 5.27095 28.2164 4.1009C31.7789 2.88104 35.5097 2.28025 39.308 2.31254C41.6827 2.33325 44.0426 2.60524 46.3427 3.12182C45.4454 3.81825 44.6303 4.61564 43.9146 5.4968C26.1467 2.46133 9.23324 16.2009 8.42259 34.0528C7.48585 34.0073 6.52047 34.0725 5.6148 34.3195C5.93019 26.7482 8.81657 19.4104 13.6476 13.998C14.6311 12.8963 12.9268 11.3752 11.9434 12.4769C6.51499 18.5585 3.37703 26.8934 3.30286 35.3966C1.31698 36.7692 0.0133667 39.0615 0.0133667 41.6528V52.6898C0.0133667 57.5678 4.16696 60.4029 8.66717 60.2896C10.2595 64.8906 16.9722 63.8911 17.0865 58.9541V34.9963C17.1375 31.9454 13.819 29.7771 11.0525 31.0379C13.3766 16.4528 27.443 5.63234 42.4861 7.60101C39.2572 13.1135 40.341 20.8566 45.017 25.3V28.4014C45.1694 29.3199 45.6983 29.6706 46.6037 29.4536L49.384 28.279C54.6283 30.7359 61.4608 29.4812 65.4662 25.5539C66.1555 27.3348 66.659 29.1714 66.9733 31.0492C64.2043 29.7682 60.8626 31.9297 60.9138 34.9961V58.954C60.8809 62.2027 64.5051 64.3306 67.316 62.7303C67.3102 63.7396 67.2917 64.7485 67.2522 65.7475C66.9802 69.02 64.457 71.7676 61.2391 72.2982C60.2166 72.3987 59.0505 72.4377 57.6244 72.4173C57.1132 70.5406 55.394 69.1569 53.3575 69.1569H47.2925C41.4283 69.399 41.4269 77.7574 47.2925 78H53.3572C55.4072 78 57.1357 76.5977 57.6342 74.702C58.923 74.7193 60.2876 74.7646 61.5673 74.5591C65.8352 73.8763 69.2444 70.2379 69.5907 65.9078C69.592 65.8925 69.5901 65.8774 69.5907 65.8624C69.6702 63.8748 69.6102 61.8675 69.5907 59.8974C74.0055 60.1114 77.9866 56.8939 77.9866 52.2976V41.2606C77.9866 38.6765 76.6903 36.3896 74.7137 35.0157ZM2.29774 52.6898V41.6528C2.29774 38.3231 5.22828 36.1566 8.37523 36.3373V58.0052C5.22661 58.1797 2.29774 56.0297 2.29774 52.6898ZM12.7711 32.9653C13.8911 32.9653 14.8021 33.8765 14.8021 34.9963V58.9541C14.6901 61.6492 10.851 61.6469 10.7402 58.9541V34.9963C10.7402 33.8763 11.6513 32.9653 12.7711 32.9653ZM53.3572 75.7156H47.2925C46.1141 75.7156 45.1553 74.757 45.1553 73.5784C45.1553 72.3998 46.114 71.4411 47.2925 71.4411H53.3572C56.1909 71.5579 56.1932 75.5981 53.3572 75.7156ZM72.387 33.9279C71.4804 33.6803 70.5139 33.6153 69.5763 33.6608C69.3422 30.2029 68.532 26.8476 67.1626 23.6681C67.8405 22.7711 68.4184 21.7947 68.8797 20.7555C70.9381 24.8477 72.1357 29.3382 72.387 33.9279ZM55.3781 27.2631C53.46 27.2631 51.6197 26.8391 49.9083 26.0031C49.5949 25.8577 49.2796 25.8492 48.9624 25.9773L47.3014 26.679V24.8109C47.3014 24.4913 47.1677 24.1865 46.9325 23.9702C38.6159 16.338 44.078 2.30508 55.3783 2.31132C71.9318 2.99618 71.928 26.58 55.3781 27.2631ZM75.7022 52.2976C75.7022 55.6634 72.7305 57.8045 69.5642 57.6131C69.5499 56.3856 69.5419 55.1581 69.5441 53.9306C69.5441 52.4539 67.2598 52.4539 67.2598 53.9306V58.954C67.2598 60.0739 66.3486 60.9849 65.2288 60.9849C64.109 60.9849 63.1978 60.0739 63.1978 58.954V34.9963C63.3063 32.3085 67.1459 32.2961 67.2598 34.9963V47.8503C67.2598 49.327 69.5441 49.327 69.5441 47.8503V35.9452C72.7182 35.7655 75.7022 37.8657 75.7022 41.2606V52.2976Z" fill="white"/>
<path d="M49.3911 64.3438C50.2965 64.5609 50.8254 64.2103 50.9778 63.2917V59.5624C61.9201 48.9233 54.2853 30.1222 38.9998 30.1418C29.5428 30.1416 21.8487 37.8345 21.8487 47.29C21.7037 59.5579 34.9325 68.0993 46.0428 62.9294L49.3911 64.3438ZM45.5169 60.6528C35.8585 65.5165 24.0004 58.1157 24.1332 47.2898C24.1331 39.0939 30.8024 32.426 38.9999 32.426C52.4645 32.4199 58.9707 49.1389 49.0623 58.2307C48.8272 58.447 48.6934 58.7519 48.6934 59.0714V61.5692L46.4628 60.6269C46.1587 60.4983 45.8136 60.5078 45.5169 60.6528Z" fill="white"/>
<path d="M35.945 42.0257H42.0551C43.5318 42.0257 43.5318 39.7413 42.0551 39.7413H35.945C34.468 39.7413 34.468 42.0257 35.945 42.0257Z" fill="white"/>
<path d="M42.0551 52.5542H35.945C34.4683 52.5542 34.4683 54.8386 35.945 54.8386H42.0551C43.5319 54.8386 43.5319 52.5542 42.0551 52.5542Z" fill="white"/>
<path d="M45.3239 46.1478H32.6761C31.1993 46.1478 31.1993 48.4322 32.6761 48.4322H45.3239C46.8006 48.4322 46.8006 46.1478 45.3239 46.1478Z" fill="white"/>
<path d="M55.4782 6.07049C52.7802 6.01886 50.4993 8.24978 50.4993 10.9482C50.4993 12.425 52.7837 12.425 52.7837 10.9482C52.7837 9.54212 54.0215 8.32364 55.4322 8.3544C56.7846 8.38166 57.8989 9.45973 57.9689 10.8087C58.0451 12.2753 56.8487 13.5427 55.3781 13.5427C54.7473 13.5427 54.236 14.0541 54.236 14.6849V18.592C54.236 19.2228 54.7473 19.7342 55.3781 19.7342C56.0089 19.7342 56.5203 19.2228 56.5203 18.592V15.69C58.7765 15.1428 60.3706 13.0103 60.2501 10.6902C60.1184 8.15109 58.0222 6.12181 55.4782 6.07049Z" fill="white"/>
<path d="M55.3781 21.3712C53.9082 21.3712 53.9058 23.6556 55.3781 23.6556C56.8479 23.6556 56.8503 21.3712 55.3781 21.3712Z" fill="white"/>
</svg>
