<svg width="32" height="32" viewBox="0 0 32 32" fill="none" xmlns="http://www.w3.org/2000/svg">
<path d="M3.25002 16C3.25002 8.95833 8.95839 3.24996 16 3.24996C23.0417 3.24996 28.75 8.95833 28.75 16C28.75 23.0416 23.0417 28.75 16 28.75C8.95839 28.75 3.25002 23.0416 3.25002 16ZM16 0.416626C7.39358 0.416626 0.416687 7.39352 0.416687 16C0.416687 24.6064 7.39358 31.5833 16 31.5833C24.6065 31.5833 31.5834 24.6064 31.5834 16C31.5834 7.39352 24.6065 0.416626 16 0.416626ZM14.6984 10.5167C13.7608 9.84694 12.4584 10.5172 12.4584 11.6695V20.3304C12.4584 21.4827 13.7608 22.153 14.6984 21.4832L20.7611 17.1528C21.5521 16.5878 21.5521 15.4122 20.7611 14.8472L14.6984 10.5167Z" fill="white"/>
</svg>
