<svg width="110" height="111" viewBox="0 0 110 111" fill="none" xmlns="http://www.w3.org/2000/svg">
<g clip-path="url(#clip0)">
<path d="M61.5681 110.135H56.9124C56.4967 110.135 56.098 109.969 55.804 109.675C55.51 109.38 55.3448 108.98 55.3448 108.564C55.3448 108.147 55.51 107.747 55.804 107.452C56.098 107.158 56.4967 106.992 56.9124 106.992H61.5681C61.9838 106.992 62.3825 107.158 62.6765 107.452C62.9705 107.747 63.1356 108.147 63.1356 108.564C63.1356 108.98 62.9705 109.38 62.6765 109.675C62.3825 109.969 61.9838 110.135 61.5681 110.135Z" fill="#004ED3"/>
<path d="M105.162 110.135H72.5411C72.1253 110.135 71.7266 109.969 71.4326 109.675C71.1387 109.38 70.9735 108.98 70.9735 108.563C70.9735 108.147 71.1387 107.747 71.4326 107.452C71.7266 107.158 72.1253 106.992 72.5411 106.992H105.162C105.578 106.992 105.977 106.826 106.271 106.532C106.565 106.237 106.73 105.837 106.73 105.421V4.84929C106.73 4.43252 106.565 4.03282 106.271 3.73812C105.977 3.44342 105.578 3.27786 105.162 3.27786H4.83783C4.42209 3.27786 4.02337 3.44342 3.7294 3.73812C3.43542 4.03282 3.27027 4.43252 3.27027 4.84929V105.421C3.27027 105.837 3.43542 106.237 3.7294 106.532C4.02337 106.826 4.42209 106.992 4.83783 106.992H30.4205C30.8363 106.992 31.235 107.158 31.529 107.452C31.823 107.747 31.9881 108.147 31.9881 108.563C31.9881 108.98 31.823 109.38 31.529 109.675C31.235 109.969 30.8363 110.135 30.4205 110.135H4.83783C3.5906 110.135 2.39445 109.638 1.51252 108.754C0.630594 107.87 0.135132 106.671 0.135132 105.421V4.84929C0.135132 3.59899 0.630594 2.39989 1.51252 1.51579C2.39445 0.631692 3.5906 0.13501 4.83783 0.13501H105.162C106.409 0.13501 107.606 0.631692 108.487 1.51579C109.369 2.39989 109.865 3.59899 109.865 4.84929V105.421C109.865 106.671 109.369 107.87 108.487 108.754C107.606 109.638 106.409 110.135 105.162 110.135Z" fill="#004ED3"/>
<path d="M45.9394 110.135H41.3935C40.9778 110.135 40.579 109.969 40.2851 109.675C39.9911 109.38 39.8259 108.98 39.8259 108.564C39.8259 108.147 39.9911 107.747 40.2851 107.452C40.579 107.158 40.9778 106.992 41.3935 106.992H45.9394C46.3552 106.992 46.7539 107.158 47.0479 107.452C47.3419 107.747 47.507 108.147 47.507 108.564C47.507 108.98 47.3419 109.38 47.0479 109.675C46.7539 109.969 46.3552 110.135 45.9394 110.135Z" fill="#004ED3"/>
<path d="M108.297 26.8494H1.7027C1.28695 26.8494 0.888238 26.6838 0.594262 26.3891C0.300286 26.0944 0.135132 25.6947 0.135132 25.278C0.135132 24.8612 0.300286 24.4615 0.594262 24.1668C0.888238 23.8721 1.28695 23.7065 1.7027 23.7065H108.297C108.713 23.7065 109.112 23.8721 109.406 24.1668C109.7 24.4615 109.865 24.8612 109.865 25.278C109.865 25.6947 109.7 26.0944 109.406 26.3891C109.112 26.6838 108.713 26.8494 108.297 26.8494Z" fill="#004ED3"/>
<path d="M93.9227 19.4245C92.778 19.4248 91.6589 19.0848 90.707 18.4475C89.755 17.8101 89.013 16.9042 88.5747 15.8441C88.1364 14.784 88.0216 13.6174 88.2447 12.4919C88.4678 11.3663 89.0189 10.3324 89.8283 9.52088C90.6376 8.70934 91.6688 8.15663 92.7915 7.93264C93.9142 7.70865 95.0779 7.82345 96.1356 8.26253C97.1932 8.7016 98.0971 9.44521 98.7332 10.3993C99.3692 11.3535 99.7086 12.4752 99.7086 13.6228C99.7053 15.1602 99.0947 16.6337 98.0104 17.721C96.9261 18.8082 95.4564 19.4207 93.9227 19.4245ZM93.9227 10.9655C93.398 10.9652 92.885 11.1209 92.4486 11.4129C92.0122 11.705 91.672 12.1202 91.471 12.6061C91.2701 13.092 91.2174 13.6267 91.3197 14.1427C91.422 14.6586 91.6747 15.1325 92.0457 15.5044C92.4167 15.8764 92.8895 16.1296 93.4041 16.2322C93.9188 16.3347 94.4522 16.2819 94.9369 16.0805C95.4216 15.879 95.8358 15.538 96.1271 15.1005C96.4185 14.663 96.5738 14.1488 96.5735 13.6228C96.5722 12.9184 96.2926 12.2432 95.7957 11.7451C95.2989 11.2471 94.6254 10.9667 93.9227 10.9655Z" fill="#004ED3"/>
<path d="M79.2315 19.4245C78.0868 19.4245 76.9679 19.0842 76.0162 18.4467C75.0644 17.8092 74.3226 16.9031 73.8846 15.843C73.4465 14.7828 73.3319 13.6163 73.5552 12.4909C73.7785 11.3655 74.3298 10.3317 75.1391 9.52033C75.9485 8.70894 76.9798 8.15639 78.1024 7.93253C79.2251 7.70867 80.3887 7.82356 81.4463 8.26268C82.5038 8.70179 83.4077 9.44541 84.0436 10.3995C84.6795 11.3536 85.019 12.4753 85.019 13.6228C85.0157 15.1604 84.4048 16.6342 83.3202 17.7215C82.2356 18.8088 80.7654 19.4211 79.2315 19.4245ZM79.2315 10.9655C78.7069 10.9655 78.194 11.1215 77.7578 11.4137C77.3216 11.7059 76.9816 12.1213 76.7809 12.6072C76.5802 13.0931 76.5278 13.6278 76.6302 14.1436C76.7327 14.6594 76.9855 15.1332 77.3566 15.505C77.7277 15.8768 78.2004 16.1299 78.715 16.2323C79.2296 16.3347 79.763 16.2818 80.2476 16.0803C80.7322 15.8788 81.1463 15.5378 81.4376 15.1004C81.7288 14.6629 81.8841 14.1487 81.8838 13.6228C81.883 12.918 81.6032 12.2423 81.106 11.7441C80.6087 11.2459 79.9345 10.9659 79.2315 10.9655Z" fill="#004ED3"/>
<path d="M64.5418 19.4245C63.3971 19.4248 62.278 19.0848 61.3261 18.4475C60.3741 17.8101 59.6321 16.9042 59.1938 15.8441C58.7555 14.784 58.6407 13.6174 58.8638 12.4919C59.087 11.3663 59.638 10.3324 60.4474 9.52088C61.2567 8.70934 62.2879 8.15663 63.4106 7.93264C64.5333 7.70865 65.6971 7.82345 66.7547 8.26253C67.8123 8.7016 68.7162 9.44521 69.3523 10.3993C69.9883 11.3535 70.3277 12.4752 70.3277 13.6228C70.3244 15.1602 69.7138 16.6337 68.6295 17.721C67.5452 18.8082 66.0755 19.4207 64.5418 19.4245ZM64.5418 10.9655C64.0171 10.9652 63.5041 11.1209 63.0677 11.4129C62.6313 11.705 62.2911 12.1202 62.0901 12.6061C61.8892 13.092 61.8365 13.6267 61.9388 14.1427C62.0411 14.6586 62.2938 15.1325 62.6648 15.5044C63.0358 15.8764 63.5086 16.1296 64.0232 16.2322C64.5379 16.3347 65.0713 16.2819 65.556 16.0805C66.0407 15.879 66.4549 15.538 66.7462 15.1005C67.0376 14.663 67.1929 14.1488 67.1926 13.6228C67.1918 12.9183 66.9122 12.2428 66.4153 11.7447C65.9184 11.2465 65.2446 10.9663 64.5418 10.9655Z" fill="#004ED3"/>
<path d="M52.7458 15.1942H11.8589C11.4432 15.1942 11.0445 15.0287 10.7505 14.734C10.4565 14.4393 10.2914 14.0396 10.2914 13.6228C10.2914 13.206 10.4565 12.8064 10.7505 12.5117C11.0445 12.217 11.4432 12.0514 11.8589 12.0514H52.7458C53.1616 12.0514 53.5603 12.217 53.8543 12.5117C54.1482 12.8064 54.3134 13.206 54.3134 13.6228C54.3134 14.0396 54.1482 14.4393 53.8543 14.734C53.5603 15.0287 53.1616 15.1942 52.7458 15.1942Z" fill="#004ED3"/>
<path d="M55 89.7065C50.5044 89.7065 46.1099 88.3702 42.372 85.8665C38.6341 83.3627 35.7208 79.8041 34.0004 75.6406C32.2801 71.477 31.8299 66.8956 32.707 62.4756C33.584 58.0556 35.7488 53.9956 38.9276 50.8089C42.1064 47.6223 46.1565 45.4522 50.5656 44.573C54.9747 43.6938 59.5449 44.145 63.6983 45.8696C67.8516 47.5942 71.4015 50.5147 73.899 54.2618C76.3966 58.0089 77.7297 62.4143 77.7297 66.9208C77.7226 72.9618 75.3256 78.7533 71.0645 83.025C66.8034 87.2966 61.0261 89.6995 55 89.7065ZM55 47.278C51.1245 47.278 47.3361 48.43 44.1138 50.5884C40.8915 52.7468 38.38 55.8146 36.8969 59.4039C35.4138 62.9931 35.0258 66.9426 35.7819 70.753C36.5379 74.5633 38.4041 78.0633 41.1445 80.8104C43.8848 83.5575 47.3763 85.4283 51.1772 86.1863C54.9782 86.9442 58.918 86.5552 62.4985 85.0685C66.0789 83.5817 69.1392 81.0641 71.2923 77.8338C73.4454 74.6036 74.5946 70.8058 74.5946 66.9208C74.5888 61.713 72.5225 56.7202 68.849 53.0377C65.1756 49.3552 60.195 47.2838 55 47.278Z" fill="#004ED3"/>
<path d="M51.3319 78.0009C50.2268 77.9992 49.1674 77.5585 48.3858 76.7753C47.6043 75.9921 47.1642 74.9303 47.1622 73.8224V60.019C47.1624 59.2416 47.3792 58.4797 47.7881 57.8191C48.197 57.1585 48.7817 56.6255 49.4765 56.2801C50.1712 55.9346 50.9483 55.7905 51.7204 55.8639C52.4924 55.9373 53.2287 56.2253 53.8463 56.6955L62.9068 63.5956C63.4178 63.9853 63.8321 64.4881 64.1173 65.0647C64.4025 65.6414 64.5508 66.2763 64.5508 66.92C64.5508 67.5636 64.4025 68.1985 64.1173 68.7752C63.8321 69.3518 63.4178 69.8546 62.9068 70.2443L53.8463 77.1445C53.1245 77.6987 52.241 77.9996 51.3319 78.0009ZM51.3397 58.9866C51.1764 58.988 51.0156 59.0267 50.8695 59.0997C50.6957 59.1824 50.5493 59.3135 50.4478 59.4774C50.3463 59.6412 50.2941 59.8309 50.2973 60.0237V73.8272C50.2975 74.0193 50.3511 74.2076 50.4521 74.3708C50.5532 74.5341 50.6977 74.6658 50.8694 74.7512C51.0411 74.8366 51.2332 74.8723 51.424 74.8543C51.6148 74.8362 51.7968 74.7651 51.9495 74.649L61.0085 67.7473C61.1351 67.6512 61.2379 67.527 61.3086 67.3844C61.3793 67.2418 61.4161 67.0847 61.4161 66.9254C61.4161 66.7662 61.3793 66.6091 61.3086 66.4665C61.2379 66.324 61.1351 66.1997 61.0085 66.1036L51.9495 59.2019C51.7766 59.0621 51.5619 58.9846 51.3397 58.9819V58.9866Z" fill="#004ED3"/>
</g>
<defs>
<clipPath id="clip0">
<rect width="109.73" height="110" fill="white" transform="translate(0.135132 0.13501)"/>
</clipPath>
</defs>
</svg>
