<svg width="110" height="110" viewBox="0 0 110 110" fill="none" xmlns="http://www.w3.org/2000/svg">
<path d="M37.2032 109.463C37.9193 110.178 39.0795 110.178 39.7956 109.463L48.9621 100.296L46.3697 97.7038L38.4994 105.574L4.42572 71.5005L25.1292 50.797L22.5368 48.2046L0.537105 70.2043C-0.178135 70.9204 -0.178135 72.0805 0.537105 72.7967L37.2032 109.463Z" fill="#039BE5"/>
<path d="M109.988 38.2996L106.321 5.30014C106.226 4.44704 105.553 3.77298 104.7 3.67899L71.7003 0.0123765C71.148 -0.0458095 70.5975 0.147547 70.2027 0.538735L57.3696 13.3719L59.962 15.9643L72.1721 3.75418L102.849 7.1603L106.255 37.8279L99.0611 45.0223L95.5771 21.5904C98.0782 20.5968 99.4998 17.9471 98.9439 15.3144C98.3889 12.6817 96.0176 10.8323 93.3285 10.9334C90.6403 11.0355 88.4158 13.0586 88.0604 15.7262C87.705 18.3929 89.3226 20.928 91.8908 21.7301L94.7267 40.7962L69.1285 15.2052C68.4124 14.489 67.2522 14.489 66.5361 15.2052L57.3696 24.3717L59.962 26.9641L67.8323 19.0938L90.9061 42.1676L86.7024 46.3714L89.2948 48.9638L94.7948 43.4639C94.8986 43.3457 94.9863 43.2141 95.0552 43.0736L95.8251 48.2485L92.2023 51.8713L94.7948 54.4637L96.4956 52.762L97.6602 60.5759C97.9368 62.8317 99.4272 64.7545 101.543 65.5853C103.659 66.416 106.059 66.0212 107.797 64.5567C109.535 63.0922 110.331 60.7943 109.872 58.568L106.498 42.7594L109.461 39.7972C109.855 39.4034 110.048 38.8528 109.988 38.2996ZM93.4986 14.6681C94.511 14.6681 95.3319 15.4889 95.3319 16.5014C95.3319 17.5138 94.511 18.3347 93.4986 18.3347C92.4861 18.3347 91.6652 17.5138 91.6652 16.5014C91.6652 15.4889 92.4861 14.6681 93.4986 14.6681ZM106.282 59.3128C106.458 60.2214 106.123 61.1542 105.408 61.7432C104.694 62.3322 103.713 62.4826 102.855 62.1353C101.996 61.788 101.397 60.9993 101.292 60.0791L99.7316 49.5358L103.419 45.8486L106.282 59.3128Z" fill="#039BE5"/>
<path d="M13.3722 71.3047L25.288 59.3889L27.8804 61.9814L15.9647 73.8971L13.3722 71.3047Z" fill="#039BE5"/>
<path d="M19.0519 76.9873L30.9676 65.0715L33.561 67.664L21.6443 79.5797L19.0519 76.9873Z" fill="#039BE5"/>
<path d="M24.7362 82.6697L31.7025 75.7034L34.2958 78.2958L27.3286 85.2621L24.7362 82.6697Z" fill="#039BE5"/>
<path d="M30.4196 88.354L35.3709 83.4037L37.9633 85.9961L33.013 90.9474L30.4196 88.354Z" fill="#039BE5"/>
<path d="M36.103 94.0375L39.7697 90.3717L42.3621 92.9641L38.6964 96.6299L36.103 94.0375Z" fill="#039BE5"/>
<path d="M65.999 100.833C72.2446 100.831 78.3246 98.822 83.342 95.1025L96.5636 108.324C98.7989 110.559 102.422 110.559 104.656 108.324C106.89 106.09 106.89 102.466 104.656 100.232L91.1282 86.7041L90.8936 86.9386C97.9126 75.5852 96.3712 60.9232 87.1464 51.2769C77.9208 41.6296 63.3421 39.4365 51.687 45.9417C40.031 52.4469 34.2447 66.0069 37.6132 78.9233C40.9808 91.8387 52.6511 100.847 65.999 100.833ZM102.064 102.824C102.867 103.627 102.867 104.929 102.064 105.732C101.261 106.535 99.959 106.535 99.156 105.732L86.1653 92.7429C87.1635 91.7985 88.0935 90.786 88.9502 89.7127L102.064 102.824ZM65.999 45.8342C80.174 45.8342 91.6653 57.3255 91.6653 71.5005C91.6653 85.6755 80.174 97.1668 65.999 97.1668C51.824 97.1668 40.3327 85.6755 40.3327 71.5005C40.3479 57.3318 51.8303 45.8495 65.999 45.8342Z" fill="#039BE5"/>
<path d="M65.999 93.5001C78.1491 93.5001 87.9987 83.6506 87.9987 71.5005C87.9987 59.3504 78.1491 49.5009 65.999 49.5009C53.8489 49.5009 43.9993 59.3504 43.9993 71.5005C44.0128 83.6452 53.8542 93.4867 65.999 93.5001ZM65.999 53.1675C76.1242 53.1675 84.3321 61.3753 84.3321 71.5005C84.3321 81.6257 76.1242 89.8335 65.999 89.8335C55.8737 89.8335 47.6659 81.6257 47.6659 71.5005C47.6767 61.3797 55.8782 53.1782 65.999 53.1675Z" fill="#039BE5"/>
<path d="M67.8323 78.8338H64.1657C63.1532 78.8338 62.3324 78.0129 62.3324 77.0005H58.6658C58.6658 80.0378 61.1284 82.5004 64.1657 82.5004V86.167H67.8323V82.5004C70.8696 82.5004 73.3322 80.0378 73.3322 77.0005V75.1672C73.3322 72.1299 70.8696 69.6673 67.8323 69.6673H64.1657C63.1532 69.6673 62.3324 68.8464 62.3324 67.8339V66.0006C62.3324 64.9882 63.1532 64.1673 64.1657 64.1673H67.8323C68.8447 64.1673 69.6656 64.9882 69.6656 66.0006H73.3322C73.3322 62.9633 70.8696 60.5007 67.8323 60.5007V56.8341H64.1657V60.5007C61.1284 60.5007 58.6658 62.9633 58.6658 66.0006V67.8339C58.6658 70.8713 61.1284 73.3339 64.1657 73.3339H67.8323C68.8447 73.3339 69.6656 74.1547 69.6656 75.1672V77.0005C69.6656 78.0129 68.8447 78.8338 67.8323 78.8338Z" fill="#039BE5"/>
<path d="M9.16653 44.0008H21.4133L33.7675 52.8245C34.0782 53.0474 34.4506 53.1673 34.8328 53.1673C35.1855 53.1664 35.531 53.0644 35.8282 52.8737C36.4629 52.4637 36.7807 51.7073 36.6294 50.967L35.2365 44.0008H45.8326C50.893 43.9945 54.9929 39.8938 54.9992 34.8343V9.16799C54.9929 4.1076 50.893 0.00773102 45.8326 0.00146484H9.16653C4.10614 0.00773102 0.00626619 4.1076 0 9.16799V34.8343C0.00626619 39.8938 4.10614 43.9945 9.16653 44.0008ZM3.66661 9.16799C3.66661 6.13068 6.12922 3.66808 9.16653 3.66808H45.8326C48.8699 3.66808 51.3325 6.13068 51.3325 9.16799V34.8343C51.3325 37.8716 48.8699 40.3342 45.8326 40.3342H32.9995C32.449 40.3342 31.9271 40.5812 31.5789 41.0073C31.2306 41.4343 31.0928 41.9947 31.2029 42.5336L32.1195 47.1554L23.0595 40.6842C22.7516 40.4595 22.381 40.3369 21.9997 40.3342H9.16653C6.12922 40.3342 3.66661 37.8716 3.66661 34.8343V9.16799Z" fill="#039BE5"/>
<path d="M9.16653 36.6677H47.6659V33.0011H10.9998V28.1116L14.6664 23.224L18.7001 28.6013C19.068 29.0623 19.6257 29.3318 20.2156 29.3344C20.8109 29.3183 21.3614 29.014 21.6917 28.518L27.6625 19.561L35.2562 28.6765C35.6062 29.0927 36.1218 29.3335 36.6661 29.3344C36.7234 29.338 36.7807 29.338 36.8389 29.3344C37.4404 29.2772 37.9748 28.928 38.2685 28.399L47.435 11.8992L44.2303 10.1214L36.3617 24.2821L28.9095 15.3349C28.5433 14.882 27.9821 14.6331 27.4002 14.668C26.8237 14.6993 26.2947 15.001 25.9742 15.4817L20.0786 24.3296L16.1327 19.0678C15.772 18.6291 15.234 18.3749 14.6664 18.3749C14.0989 18.3749 13.5609 18.6291 13.2002 19.0678L10.9998 22.0012V9.16809H7.33322V34.8344C7.33322 35.8468 8.15409 36.6677 9.16653 36.6677Z" fill="#039BE5"/>
</svg>
