<svg width="110" height="110" viewBox="0 0 110 110" fill="none" xmlns="http://www.w3.org/2000/svg">
<path d="M57.7203 52.2824C56.8802 51.4423 55.5203 51.4423 54.6802 52.2824C53.8423 53.1203 53.8423 54.4802 54.6802 55.3203C55.5203 56.1581 56.8802 56.1581 57.7203 55.3203C58.5581 54.4802 58.5581 53.1203 57.7203 52.2824Z" fill="#FFAE35"/>
<path d="M85.0635 24.9369C80.8655 20.7391 74.0696 20.7389 69.8713 24.9369C65.6842 29.124 65.684 35.9388 69.872 40.1293C74.0606 44.3153 80.8754 44.3171 85.0635 40.1289C89.2612 35.9313 89.262 29.1352 85.0635 24.9369ZM82.0252 37.0904C79.5131 39.6027 75.4237 39.6027 72.9103 37.0908C70.3977 34.5767 70.3975 30.4874 72.9099 27.9752C75.4285 25.4566 79.5062 25.4562 82.0252 27.9752C84.5438 30.4936 84.5443 34.5715 82.0252 37.0904Z" fill="#FFAE35"/>
<path d="M109.37 0.629297C108.948 0.20756 108.373 -0.0210336 107.774 0.00152496C107.288 0.0189273 95.7221 0.483848 81.9732 5.34339C70.9561 9.23334 61.773 14.8027 54.6791 21.8969C53.0895 23.4865 51.5426 25.1721 50.0626 26.9233C43.0484 22.7945 37.4276 24.0891 33.8743 25.9907C25.6929 30.3692 20.6288 42.2578 20.6288 50.7613C20.6295 51.6301 21.153 52.4136 21.9557 52.746C22.2214 52.8562 22.5007 52.9097 22.7775 52.9097C23.3367 52.9097 23.8861 52.6912 24.2971 52.2804C28.6117 47.9657 33.9336 48.2356 35.6721 48.4642L36.4245 49.2165C34.9438 52.74 33.751 56.2436 32.8762 59.6513C32.5604 60.8845 32.6669 62.1894 33.1363 63.3831C31.0678 64.3363 29.0722 65.7361 27.3345 67.4737C21.8042 73.0042 20.6812 86.4822 20.6361 87.0532C20.5867 87.6799 20.814 88.297 21.2585 88.7415C21.6631 89.1458 22.2103 89.3708 22.7775 89.3708C22.8338 89.3708 22.8903 89.3686 22.9468 89.3641C23.5178 89.3192 36.9962 88.1962 42.5265 82.6659C44.2635 80.9289 45.663 78.9334 46.6163 76.8654C47.88 77.3623 49.1806 77.4235 50.3502 77.1238C53.7564 76.2492 57.2596 75.0568 60.7835 73.5759L61.5358 74.3283C61.7642 76.067 62.0341 81.3889 57.7196 85.7032C57.1053 86.3176 56.9214 87.2417 57.254 88.0443C57.5864 88.8472 58.3697 89.3705 59.2387 89.3705C67.7422 89.3705 79.6306 84.3065 84.0091 76.125C85.9107 72.5722 87.2053 66.9514 83.0765 59.937C84.8268 58.4576 86.5127 56.9107 88.1029 55.3205C95.1971 48.2263 100.766 39.0433 104.656 28.027C109.516 14.2774 109.981 2.71113 109.998 2.22558C110.02 1.62939 109.792 1.05125 109.37 0.629297ZM25.4323 46.1402C26.7669 39.6814 30.6433 32.5939 35.9027 29.779C39.4173 27.8983 43.2589 28.0826 47.3435 30.3185C43.8637 34.8951 40.8385 39.8257 38.3169 45.0325C38.2849 45.0127 37.8981 44.5265 37.1797 44.3645C36.8843 44.2977 31.1998 43.075 25.4323 46.1402ZM39.4882 79.6274C36.5341 82.5815 29.6043 84.1395 25.2243 84.7757C25.8607 80.3955 27.4189 73.4659 30.3728 70.512C32.0271 68.8577 33.9452 67.6035 35.8732 66.8971L43.1031 74.127C42.3967 76.055 41.1427 77.9731 39.4882 79.6274ZM49.2829 72.9615C48.6611 73.1207 47.941 72.8869 47.4056 72.3524C44.6262 69.5729 43.5388 68.4856 43.1977 68.1447C42.5721 67.5191 41.0379 65.9848 37.6491 62.5959C37.1133 62.059 36.8796 61.3391 37.0383 60.7184C37.7265 58.0384 38.6265 55.2889 39.7209 52.5129L57.4873 70.2794C54.7109 71.374 51.9618 72.2737 49.2829 72.9615ZM80.2212 74.0975C77.4063 79.3567 70.3191 83.2333 63.8605 84.5677C65.9197 80.6926 66.3737 75.7596 65.6213 72.7683C65.4466 72.0735 64.9933 71.7242 64.968 71.6831C70.1743 69.1615 75.1047 66.1363 79.6817 62.6565C81.9176 66.7415 82.1017 70.5836 80.2212 74.0975ZM85.0651 52.2821C83.1291 54.2179 81.0445 56.0881 78.869 57.8406C73.6393 62.0515 67.8832 65.6183 61.7421 68.4577L41.5425 48.2586C44.3819 42.117 47.9487 36.361 52.1592 31.1319C53.9132 28.9549 55.7832 26.87 57.7183 24.9352C64.083 18.5702 72.2973 13.5046 82.1398 9.85832L100.142 27.8605C96.496 37.7027 91.4304 45.917 85.0651 52.2821ZM101.688 23.3292L86.671 8.31252C94.8525 5.77136 101.97 4.81982 105.523 4.47779C105.18 8.03108 104.229 15.1486 101.688 23.3292Z" fill="#FFAE35"/>
<path d="M51.6421 88.7408C50.8027 87.9019 49.4423 87.9023 48.6036 88.7413L42.5278 94.8192C41.6891 95.6583 41.6893 97.0187 42.5283 97.8575C43.3676 98.6962 44.728 98.6962 45.5668 97.857L51.6425 91.7791C52.4813 90.94 52.4811 89.5796 51.6421 88.7408Z" fill="#FFAE35"/>
<path d="M21.2596 58.3581C20.4209 57.5189 19.0607 57.5189 18.2213 58.3576L12.1434 64.4334C11.3042 65.2722 11.304 66.6325 12.1428 67.4717C12.9813 68.3105 14.3415 68.3113 15.1811 67.4721L21.259 61.3964C22.0982 60.5576 22.0984 59.1973 21.2596 58.3581Z" fill="#FFAE35"/>
<path d="M36.4509 91.7811C35.6124 90.9421 34.2518 90.9421 33.4126 91.7809L18.8591 106.332C18.02 107.171 18.02 108.532 18.8589 109.371C19.6975 110.21 21.0581 110.21 21.8972 109.371L36.4507 94.8194C37.2899 93.9805 37.2899 92.6201 36.4509 91.7811Z" fill="#FFAE35"/>
<path d="M19.2635 91.7811C18.4248 90.9421 17.0642 90.9421 16.2252 91.7809L1.67171 106.332C0.83253 107.171 0.83253 108.532 1.67149 109.371C2.51003 110.21 3.87063 110.21 4.70981 109.371L19.2633 94.8194C20.1025 93.9805 20.1025 92.6201 19.2635 91.7811Z" fill="#FFAE35"/>
<path d="M18.2191 73.549C17.3804 72.7102 16.0198 72.7102 15.1808 73.5492L0.62947 88.1026C-0.209493 88.9418 -0.209493 90.302 0.629685 91.1412C1.46865 91.9801 2.82904 91.9801 3.668 91.141L18.2193 76.5875C19.0583 75.7483 19.0583 74.3881 18.2191 73.549Z" fill="#FFAE35"/>
<path d="M66.8341 43.1661C65.9949 42.3271 64.635 42.3271 63.7956 43.1661L60.7577 46.204C59.9187 47.0429 59.9187 48.4033 60.7577 49.2425C61.5969 50.0815 62.957 50.0815 63.7962 49.2425L66.8341 46.2046C67.6731 45.3657 67.6731 44.0053 66.8341 43.1661Z" fill="#FFAE35"/>
</svg>
