<svg width="200" height="200" viewBox="0 0 200 200" fill="none" xmlns="http://www.w3.org/2000/svg">
<rect width="200" height="200" fill="#222831"/>
<path d="M62.543 70.0586H69.3301C73.5944 69.9935 76.9473 68.8704 79.3887 66.6895C81.8301 64.5085 83.0508 61.5625 83.0508 57.8516C83.0508 49.5182 78.9004 45.3516 70.5996 45.3516C66.6934 45.3516 63.5684 46.4746 61.2246 48.7207C58.9134 50.9342 57.7578 53.8802 57.7578 57.5586H48.7246C48.7246 51.9271 50.7754 47.2559 54.877 43.5449C59.0111 39.8014 64.252 37.9297 70.5996 37.9297C77.3053 37.9297 82.5625 39.7038 86.3711 43.252C90.1797 46.8001 92.084 51.7318 92.084 58.0469C92.084 61.1393 91.0749 64.1341 89.0566 67.0312C87.071 69.9284 84.3529 72.0931 80.9023 73.5254C84.8086 74.7624 87.8197 76.8132 89.9355 79.6777C92.084 82.5423 93.1582 86.0417 93.1582 90.1758C93.1582 96.556 91.0749 101.618 86.9082 105.361C82.7415 109.105 77.3216 110.977 70.6484 110.977C63.9753 110.977 58.5391 109.17 54.3398 105.557C50.1732 101.943 48.0898 97.1745 48.0898 91.25H57.1719C57.1719 94.9935 58.3926 97.9883 60.834 100.234C63.2754 102.48 66.5469 103.604 70.6484 103.604C75.0104 103.604 78.347 102.464 80.6582 100.186C82.9694 97.9069 84.125 94.6354 84.125 90.3711C84.125 86.237 82.8555 83.0632 80.3164 80.8496C77.7773 78.6361 74.1152 77.4967 69.3301 77.4316H62.543V70.0586ZM150.141 79.6777C150.141 90.2572 148.334 98.1185 144.721 103.262C141.107 108.405 135.46 110.977 127.777 110.977C120.193 110.977 114.577 108.47 110.932 103.457C107.286 98.4115 105.398 90.8919 105.268 80.8984V68.8379C105.268 58.3887 107.074 50.625 110.688 45.5469C114.301 40.4688 119.965 37.9297 127.68 37.9297C135.329 37.9297 140.961 40.3874 144.574 45.3027C148.188 50.1855 150.043 57.7376 150.141 67.959V79.6777ZM141.107 67.3242C141.107 59.6745 140.033 54.1081 137.885 50.625C135.736 47.1094 132.335 45.3516 127.68 45.3516C123.057 45.3516 119.688 47.0931 117.572 50.5762C115.456 54.0592 114.366 59.4141 114.301 66.6406V81.0938C114.301 88.776 115.408 94.4564 117.621 98.1348C119.867 101.781 123.253 103.604 127.777 103.604C132.237 103.604 135.541 101.878 137.689 98.4277C139.87 94.9772 141.01 89.541 141.107 82.1191V67.3242Z" fill="#FFAE35"/>
<path d="M89.5527 131.98V151H86.2832V134.67H79.8145L79.4277 141.789C79.2168 145.059 78.666 147.396 77.7754 148.803C76.8965 150.209 75.4961 150.941 73.5742 151H72.2734V148.135L73.2051 148.064C74.2598 147.947 75.0156 147.338 75.4727 146.236C75.9297 145.135 76.2227 143.096 76.3516 140.119L76.7031 131.98H89.5527ZM102.666 151.352C100.088 151.352 97.9902 150.508 96.373 148.82C94.7559 147.121 93.9473 144.854 93.9473 142.018V141.42C93.9473 139.533 94.3047 137.852 95.0195 136.375C95.7461 134.887 96.7539 133.727 98.043 132.895C99.3438 132.051 100.75 131.629 102.262 131.629C104.734 131.629 106.656 132.443 108.027 134.072C109.398 135.701 110.084 138.033 110.084 141.068V142.422H97.1992C97.2461 144.297 97.791 145.814 98.834 146.975C99.8887 148.123 101.225 148.697 102.842 148.697C103.99 148.697 104.963 148.463 105.76 147.994C106.557 147.525 107.254 146.904 107.852 146.131L109.838 147.678C108.244 150.127 105.854 151.352 102.666 151.352ZM102.262 134.301C100.949 134.301 99.8477 134.781 98.957 135.742C98.0664 136.691 97.5156 138.027 97.3047 139.75H106.832V139.504C106.738 137.852 106.293 136.574 105.496 135.672C104.699 134.758 103.621 134.301 102.262 134.301ZM127.785 134.617H121.404V151H118.152V134.617H111.895V131.98H127.785V134.617Z" fill="#FFAE35"/>
</svg>
